<svg width="18" height="18" viewBox="0 0 18 18" fill="none" xmlns="http://www.w3.org/2000/svg">
<g clip-path="url(#clip0_1_1365)">
<path d="M3.99939 9.70236L12.0096 17.7124C12.1949 17.8979 12.4422 18 12.7059 18C12.9696 18 13.2169 17.8979 13.4022 17.7124L13.9921 17.1227C14.3759 16.7384 14.3759 16.1138 13.9921 15.7301L7.2657 9.00373L13.9995 2.26988C14.1848 2.08447 14.2871 1.8373 14.2871 1.57374C14.2871 1.30989 14.1848 1.06272 13.9995 0.877163L13.4097 0.287558C13.2242 0.102144 12.9771 1.14527e-07 12.7134 1.37581e-07C12.4497 1.60635e-07 12.2023 0.102144 12.0171 0.287558L3.99938 8.30496C3.81368 8.49096 3.71168 8.73929 3.71227 9.00329C3.71168 9.26832 3.81368 9.51651 3.99939 9.70236Z" fill="#BFBFBF"/>
</g>
<defs>
<clipPath id="clip0_1_1365">
<rect width="18" height="18" fill="white" transform="translate(18 18) rotate(180)"/>
</clipPath>
</defs>
</svg>
