<svg width="12" height="18" viewBox="0 0 12 18" fill="none" xmlns="http://www.w3.org/2000/svg">
<path d="M11.0006 8.29764L2.99038 0.287559C2.80512 0.102146 2.5578 0 2.2941 0C2.03039 0 1.78308 0.102146 1.59781 0.287559L1.00791 0.87731C0.624062 1.2616 0.624062 1.88618 1.00791 2.26988L7.7343 8.99627L1.00045 15.7301C0.815183 15.9155 0.712891 16.1627 0.712891 16.4263C0.712891 16.6901 0.815183 16.9373 1.00045 17.1228L1.59035 17.7124C1.77576 17.8979 2.02293 18 2.28663 18C2.55034 18 2.79765 17.8979 2.98292 17.7124L11.0006 9.69504C11.1863 9.50904 11.2883 9.26071 11.2877 8.99671C11.2883 8.73169 11.1863 8.48349 11.0006 8.29764Z" fill="#BFBFBF"/>
</svg>
